<svg width="164" height="38" viewBox="0 0 164 38" fill="none" xmlns="http://www.w3.org/2000/svg">
<g filter="url(#filter0_dd_21_3)">
<rect x="3.1" y="2.1" width="31.8" height="31.8" rx="7.9" fill="white"/>
<rect x="3.1" y="2.1" width="31.8" height="31.8" rx="7.9" fill="url(#paint0_linear_21_3)"/>
<rect x="3.1" y="2.1" width="31.8" height="31.8" rx="7.9" stroke="#D0D5DD" stroke-width="0.2"/>
<path d="M18.3546 13.1828C22.7105 11.4504 27.4742 12.8185 29.6373 14.9133C30.106 15.3671 30.5041 15.8275 30.845 16.2852C31.0394 15.2107 31.0552 14.1405 30.8681 13.1055C30.1847 9.32649 26.6195 7.18561 23.4233 8.29149C20.2415 9.3924 19.0005 11.5321 19.0005 11.5321C19.0005 11.5321 17.7595 9.3924 14.5777 8.29149C11.3812 7.18561 7.81603 9.32672 7.1328 13.1055C6.62842 15.8944 7.58356 18.9392 9.61033 21.6298C10.0372 21.7732 10.4847 21.8809 10.9586 21.9431C13.7978 22.3163 14.8184 21.557 16.0178 21.0486C16.8142 20.7113 17.4134 21.0942 17.3843 21.3626C17.3392 21.7786 15.7693 22.4895 16.106 22.6388C17.4351 23.2285 19.0718 23.2334 20.3053 22.18C21.838 20.8712 22.4114 21.7659 22.4114 21.7659C22.4114 21.7659 21.6502 23.7076 19.3581 24.6717C17.4457 25.4761 15.4419 25.6743 13.6107 25.4683C15.19 26.5846 17.0035 27.5204 19.0005 28.1883C24.7099 26.2784 28.9276 22.1871 30.4145 17.9096C29.4072 16.9157 28.1716 16.2996 26.6988 16.0763C23.8674 15.6471 22.8322 16.3863 21.6228 16.8708C20.8198 17.1926 20.2285 16.7978 20.263 16.5299C20.3161 16.1148 21.8999 15.4351 21.5661 15.279C20.249 14.6633 18.6125 14.626 17.3585 15.6549C15.8003 16.9332 15.2446 16.0274 15.2446 16.0274C15.2446 16.0274 16.0438 14.1015 18.3546 13.1828ZM17.2709 18.5052H18.3709V17.4052H19.6296V18.5052H20.7296V19.7639H19.6296V20.8639H18.3709V19.7639H17.2709V18.5052Z" fill="url(#paint1_linear_21_3)"/>
<path d="M17.2709 18.5052H18.3709V17.4052H19.6296V18.5052H20.7295V19.7639H19.6378C21.2597 20.5834 24.2383 21.8027 27.8177 22.3451C28.9956 20.9517 29.8813 19.4428 30.4143 17.9096C29.4069 16.9157 28.1713 16.2996 26.6986 16.0763C23.8672 15.647 22.8319 16.3863 21.6226 16.8708C20.8196 17.1926 20.2282 16.7978 20.2627 16.5299C20.3159 16.1148 21.8997 15.4351 21.5659 15.279C20.2488 14.6633 18.6123 14.626 17.3583 15.6548C15.8 16.9332 15.2443 16.0274 15.2443 16.0274C15.2443 16.0274 16.0438 14.1013 18.3543 13.1823C22.7102 11.4499 27.4739 12.818 29.637 14.9128C30.1057 15.3666 30.5038 15.8271 30.8447 16.2847C31.0392 15.2102 31.055 14.14 30.8679 13.105C30.1844 9.326 26.6192 7.18512 23.423 8.291C20.2412 9.39191 19.0002 11.5316 19.0002 11.5316C19.0002 11.5316 17.7592 9.39191 14.5774 8.291C12.7519 7.65927 10.8067 8.0883 9.34619 9.27521C10.0323 10.7442 10.836 12.1168 13.1254 14.8773C14.9868 17.1222 17.2709 18.5052 17.2709 18.5052Z" fill="url(#paint2_linear_21_3)"/>
<path opacity="0.31" d="M27.2769 9.64942C24.2711 8.13932 21.169 10.489 20.185 11.7298C21.882 11.3724 23.3668 11.189 25.2457 11.5838C28.0251 12.1678 29.0653 13.1714 30.3063 14.6541C30.0871 11.9068 28.3518 10.1895 27.2769 9.64942Z" fill="url(#paint3_linear_21_3)"/>
</g>
<path d="M46.728 28V10.12H52.56C54.448 10.12 56.088 10.504 57.48 11.272C58.888 12.024 59.976 13.072 60.744 14.416C61.512 15.744 61.896 17.288 61.896 19.048C61.896 20.792 61.512 22.344 60.744 23.704C59.976 25.048 58.888 26.104 57.48 26.872C56.088 27.624 54.448 28 52.56 28H46.728ZM49.992 25.12H52.632C53.848 25.12 54.896 24.872 55.776 24.376C56.672 23.864 57.368 23.16 57.864 22.264C58.36 21.352 58.608 20.28 58.608 19.048C58.608 17.8 58.36 16.728 57.864 15.832C57.368 14.936 56.672 14.24 55.776 13.744C54.896 13.248 53.848 13 52.632 13H49.992V25.12ZM70.6136 28.288C69.3336 28.288 68.1656 27.992 67.1096 27.4C66.0696 26.808 65.2376 26 64.6136 24.976C64.0056 23.952 63.7016 22.784 63.7016 21.472C63.7016 20.16 64.0056 18.992 64.6136 17.968C65.2376 16.944 66.0696 16.136 67.1096 15.544C68.1496 14.952 69.3176 14.656 70.6136 14.656C71.8936 14.656 73.0536 14.952 74.0936 15.544C75.1336 16.136 75.9576 16.944 76.5656 17.968C77.1896 18.976 77.5016 20.144 77.5016 21.472C77.5016 22.784 77.1896 23.952 76.5656 24.976C75.9416 26 75.1096 26.808 74.0696 27.4C73.0296 27.992 71.8776 28.288 70.6136 28.288ZM70.6136 25.408C71.3176 25.408 71.9336 25.24 72.4616 24.904C73.0056 24.568 73.4296 24.104 73.7336 23.512C74.0536 22.904 74.2136 22.224 74.2136 21.472C74.2136 20.704 74.0536 20.032 73.7336 19.456C73.4296 18.864 73.0056 18.4 72.4616 18.064C71.9336 17.712 71.3176 17.536 70.6136 17.536C69.8936 17.536 69.2616 17.712 68.7176 18.064C68.1736 18.4 67.7416 18.864 67.4216 19.456C67.1176 20.032 66.9656 20.704 66.9656 21.472C66.9656 22.224 67.1176 22.904 67.4216 23.512C67.7416 24.104 68.1736 24.568 68.7176 24.904C69.2616 25.24 69.8936 25.408 70.6136 25.408ZM86.1739 28.288C84.8779 28.288 83.7099 27.992 82.6699 27.4C81.6459 26.792 80.8379 25.976 80.2459 24.952C79.6539 23.912 79.3579 22.744 79.3579 21.448C79.3579 20.152 79.6539 18.992 80.2459 17.968C80.8379 16.944 81.6459 16.136 82.6699 15.544C83.7099 14.952 84.8779 14.656 86.1739 14.656C87.1019 14.656 87.9659 14.824 88.7659 15.16C89.5659 15.48 90.2539 15.928 90.8299 16.504C91.4219 17.064 91.8459 17.736 92.1019 18.52L89.3419 19.72C89.1019 19.064 88.6939 18.536 88.1179 18.136C87.5579 17.736 86.9099 17.536 86.1739 17.536C85.4859 17.536 84.8699 17.704 84.3259 18.04C83.7979 18.376 83.3819 18.84 83.0779 19.432C82.7739 20.024 82.6219 20.704 82.6219 21.472C82.6219 22.24 82.7739 22.92 83.0779 23.512C83.3819 24.104 83.7979 24.568 84.3259 24.904C84.8699 25.24 85.4859 25.408 86.1739 25.408C86.9259 25.408 87.5819 25.208 88.1419 24.808C88.7019 24.408 89.1019 23.872 89.3419 23.2L92.1019 24.448C91.8459 25.184 91.4299 25.848 90.8539 26.44C90.2779 27.016 89.5899 27.472 88.7899 27.808C87.9899 28.128 87.1179 28.288 86.1739 28.288ZM94.7514 28V10.12H101.423C102.639 10.12 103.711 10.344 104.639 10.792C105.583 11.224 106.319 11.864 106.847 12.712C107.375 13.544 107.639 14.56 107.639 15.76C107.639 16.944 107.367 17.96 106.823 18.808C106.295 19.64 105.567 20.28 104.639 20.728C103.711 21.176 102.639 21.4 101.423 21.4H98.0154V28H94.7514ZM98.0154 18.52H101.471C102.063 18.52 102.575 18.408 103.007 18.184C103.439 17.944 103.775 17.616 104.015 17.2C104.255 16.784 104.375 16.304 104.375 15.76C104.375 15.2 104.255 14.72 104.015 14.32C103.775 13.904 103.439 13.584 103.007 13.36C102.575 13.12 102.063 13 101.471 13H98.0154V18.52ZM114.706 28.288C113.698 28.288 112.818 28.064 112.066 27.616C111.33 27.168 110.762 26.544 110.362 25.744C109.978 24.944 109.786 24.008 109.786 22.936V14.944H112.93V22.672C112.93 23.216 113.034 23.696 113.242 24.112C113.466 24.512 113.778 24.832 114.178 25.072C114.594 25.296 115.058 25.408 115.57 25.408C116.082 25.408 116.538 25.296 116.938 25.072C117.338 24.832 117.65 24.504 117.874 24.088C118.098 23.672 118.21 23.176 118.21 22.6V14.944H121.354V28H118.378V25.432L118.642 25.888C118.338 26.688 117.834 27.288 117.13 27.688C116.442 28.088 115.634 28.288 114.706 28.288ZM124.277 28V9.832H127.421V28H124.277ZM135.291 28.288C133.899 28.288 132.683 27.96 131.643 27.304C130.619 26.632 129.915 25.728 129.531 24.592L131.883 23.464C132.219 24.2 132.683 24.776 133.275 25.192C133.883 25.608 134.555 25.816 135.291 25.816C135.867 25.816 136.323 25.688 136.659 25.432C136.995 25.176 137.163 24.84 137.163 24.424C137.163 24.168 137.091 23.96 136.947 23.8C136.819 23.624 136.635 23.48 136.395 23.368C136.171 23.24 135.923 23.136 135.651 23.056L133.515 22.456C132.411 22.136 131.571 21.648 130.995 20.992C130.435 20.336 130.155 19.56 130.155 18.664C130.155 17.864 130.355 17.168 130.755 16.576C131.171 15.968 131.739 15.496 132.459 15.16C133.195 14.824 134.035 14.656 134.979 14.656C136.211 14.656 137.299 14.952 138.243 15.544C139.187 16.136 139.859 16.968 140.259 18.04L137.859 19.168C137.635 18.576 137.259 18.104 136.731 17.752C136.203 17.4 135.611 17.224 134.955 17.224C134.427 17.224 134.011 17.344 133.707 17.584C133.403 17.824 133.251 18.136 133.251 18.52C133.251 18.76 133.315 18.968 133.443 19.144C133.571 19.32 133.747 19.464 133.971 19.576C134.211 19.688 134.483 19.792 134.787 19.888L136.875 20.512C137.947 20.832 138.771 21.312 139.347 21.952C139.939 22.592 140.235 23.376 140.235 24.304C140.235 25.088 140.027 25.784 139.611 26.392C139.195 26.984 138.619 27.448 137.883 27.784C137.147 28.12 136.283 28.288 135.291 28.288ZM148.844 28.288C147.5 28.288 146.324 27.984 145.316 27.376C144.308 26.768 143.524 25.944 142.964 24.904C142.404 23.864 142.124 22.712 142.124 21.448C142.124 20.136 142.404 18.976 142.964 17.968C143.54 16.944 144.316 16.136 145.292 15.544C146.284 14.952 147.388 14.656 148.604 14.656C149.628 14.656 150.524 14.824 151.292 15.16C152.076 15.496 152.74 15.96 153.284 16.552C153.828 17.144 154.244 17.824 154.532 18.592C154.82 19.344 154.964 20.16 154.964 21.04C154.964 21.264 154.948 21.496 154.916 21.736C154.9 21.976 154.86 22.184 154.796 22.36H144.715V19.96H153.02L151.532 21.088C151.676 20.352 151.636 19.696 151.412 19.12C151.204 18.544 150.852 18.088 150.356 17.752C149.876 17.416 149.292 17.248 148.604 17.248C147.948 17.248 147.364 17.416 146.852 17.752C146.34 18.072 145.948 18.552 145.676 19.192C145.42 19.816 145.324 20.576 145.388 21.472C145.324 22.272 145.428 22.984 145.7 23.608C145.988 24.216 146.404 24.688 146.948 25.024C147.508 25.36 148.148 25.528 148.868 25.528C149.588 25.528 150.196 25.376 150.692 25.072C151.204 24.768 151.604 24.36 151.892 23.848L154.436 25.096C154.18 25.72 153.78 26.272 153.236 26.752C152.692 27.232 152.044 27.608 151.292 27.88C150.556 28.152 149.74 28.288 148.844 28.288Z" fill="white"/>
<defs>
<filter id="filter0_dd_21_3" x="0" y="0" width="38" height="38" filterUnits="userSpaceOnUse" color-interpolation-filters="sRGB">
<feFlood flood-opacity="0" result="BackgroundImageFix"/>
<feColorMatrix in="SourceAlpha" type="matrix" values="0 0 0 0 0 0 0 0 0 0 0 0 0 0 0 0 0 0 127 0" result="hardAlpha"/>
<feOffset dy="1"/>
<feGaussianBlur stdDeviation="1"/>
<feColorMatrix type="matrix" values="0 0 0 0 0.0627451 0 0 0 0 0.0941176 0 0 0 0 0.156863 0 0 0 0.06 0"/>
<feBlend mode="normal" in2="BackgroundImageFix" result="effect1_dropShadow_21_3"/>
<feColorMatrix in="SourceAlpha" type="matrix" values="0 0 0 0 0 0 0 0 0 0 0 0 0 0 0 0 0 0 127 0" result="hardAlpha"/>
<feOffset dy="1"/>
<feGaussianBlur stdDeviation="1.5"/>
<feColorMatrix type="matrix" values="0 0 0 0 0.0627451 0 0 0 0 0.0941176 0 0 0 0 0.156863 0 0 0 0.1 0"/>
<feBlend mode="normal" in2="effect1_dropShadow_21_3" result="effect2_dropShadow_21_3"/>
<feBlend mode="normal" in="SourceGraphic" in2="effect2_dropShadow_21_3" result="shape"/>
</filter>
<linearGradient id="paint0_linear_21_3" x1="19" y1="2" x2="19" y2="34" gradientUnits="userSpaceOnUse">
<stop stop-color="white"/>
<stop offset="1" stop-color="#D0D5DD"/>
</linearGradient>
<linearGradient id="paint1_linear_21_3" x1="10.1989" y1="24.2137" x2="27.8347" y2="6.57791" gradientUnits="userSpaceOnUse">
<stop stop-color="#0076C1"/>
<stop offset="0.0737" stop-color="#0B82C6"/>
<stop offset="0.2766" stop-color="#269ED3"/>
<stop offset="0.4546" stop-color="#36AFDA"/>
<stop offset="0.587" stop-color="#3CB5DD"/>
</linearGradient>
<linearGradient id="paint2_linear_21_3" x1="10.1388" y1="24.2537" x2="27.8274" y2="6.56509" gradientUnits="userSpaceOnUse">
<stop stop-color="#00A482"/>
<stop offset="1" stop-color="#79DD83"/>
</linearGradient>
<linearGradient id="paint3_linear_21_3" x1="24.8608" y1="13.5072" x2="28.5287" y2="10.1131" gradientUnits="userSpaceOnUse">
<stop stop-color="#00A482"/>
<stop offset="1" stop-color="#79DD83"/>
</linearGradient>
</defs>
</svg>
